Patient4_TMGait_0pt4_01_right_18_GRF.mot
version=1
nRows=78
nColumns=19
inDegrees=no
endheader
time	F1x	F1y	F1z	M1x	M1y	M1z	F2x	F2y	F2z	M2x	M2y	M2z	EC1x	EC1y	EC1z	EC2x	EC2y	EC2z
23.31	-3.0785	801.2718	84.0999	-199.1682	-65.4903	655.0919	-11.5623	13.7781	1.5585	4.6307	2.7279	10.9067	-0.0592	0.0182	-0.0073	-0.0462	0.0165	0.9585
23.3229	-1.4886	790.6213	82.4615	-195.5474	-63.364	645.8174	-8.2201	10.7743	0.92846	3.7422	2.1813	8.7203	-0.0592	0.0182	-0.0073	-0.0462	0.0165	0.9585
23.3357	-0.11009	777.2175	80.8293	-191.1532	-61.2705	634.1912	-5.1675	7.9579	0.43524	2.878	1.5791	6.6366	-0.0592	0.0182	-0.0073	-0.0462	0.0165	0.9585
23.3486	1.0698	761.2285	79.1739	-186.0881	-59.2065	620.3571	-2.7015	5.6439	0.080736	2.1547	1.0347	4.9027	-0.0592	0.0182	-0.0073	-0.0462	0.0165	0.9585
23.3614	2.1525	743.236	77.4362	-180.55	-57.1124	604.7806	-0.90117	3.9409	-0.15858	1.6175	0.60804	3.6193	-0.0592	0.0182	-0.0073	-0.0462	0.0165	0.9585
23.3743	3.2584	724.2678	75.6359	-174.8345	-54.9836	588.274	0.30357	2.8101	-0.30558	1.2587	0.30316	2.7518	-0.0592	0.0182	-0.0073	-0.0462	0.0165	0.9585
23.3871	4.4984	705.6511	73.8191	-169.3006	-52.8256	571.8705	1.0155	2.1288	-0.39024	1.0385	0.11387	2.2083	-0.0592	0.0182	-0.0073	-0.0462	0.0165	0.9585
23.4	5.9301	688.7911	72.0903	-164.3124	-50.7051	556.6712	1.3779	1.7372	-0.42943	0.90231	0.011048	1.8648	-0.0592	0.0182	-0.0073	-0.0462	0.0165	0.9585
23.4129	7.5826	675.0185	70.5245	-160.2071	-48.6727	543.6953	1.5117	1.4659	-0.44838	0.78875	-0.025817	1.5934	-0.0592	0.0182	-0.0073	-0.0462	0.0165	0.9585
23.4257	9.4673	665.3939	69.1996	-157.2499	-46.7881	533.7468	1.5171	1.1204	-0.45598	0.62722	-0.029876	1.2328	-0.0592	0.0182	-0.0073	-0.0462	0.0165	0.9585
23.4386	11.5891	660.5524	68.1329	-155.5948	-45.0593	527.2931	1.4741	0.52638	-0.45691	0.34991	-0.031852	0.64081	-0.0592	0.0182	-0.0073	-0.0462	0.0165	0.9585
23.4514	13.9494	660.6058	67.3582	-155.2568	-43.5075	524.3897	1.4359	-0.46697	-0.44716	-0.10634	-0.05357	-0.30901	-0.0592	0.0182	-0.0073	-0.0462	0.0165	0.9585
23.4643	16.5727	665.1584	66.8792	-156.1211	-42.1228	524.7001	1.4253	-1.9867	-0.41389	-0.79423	-0.10962	-1.7299	-0.0592	0.0182	-0.0073	-0.0462	0.0165	0.9585
23.4771	19.4699	673.4046	66.7119	-157.9674	-40.9132	527.5873	1.4399	-4.0693	-0.34179	-1.729	-0.21071	-3.6575	-0.0592	0.0182	-0.0073	-0.0462	0.0165	0.9585
23.49	22.6548	684.302	66.8286	-160.5202	-39.8546	532.2498	1.4618	-6.6176	-0.21156	-2.8656	-0.36484	-6.0028	-0.0592	0.0182	-0.0073	-0.0462	0.0165	0.9585
23.5029	26.1301	696.6757	67.1892	-163.4782	-38.9187	537.8002	1.4221	-9.3277	-0.00095124	-4.066	-0.561	-8.4741	-0.0592	0.0182	-0.0073	-0.0462	0.0165	0.9585
23.5157	29.8881	709.3086	67.7269	-166.5388	-38.0628	543.3471	1.2534	-11.5726	0.3037	-5.0514	-0.77524	-10.4928	-0.0592	0.0182	-0.0073	-0.0462	0.0165	0.9585
23.5286	33.8596	720.9473	68.3873	-169.3986	-37.2728	548.0195	0.85573	-12.3124	0.69409	-5.3607	-0.95329	-11.1006	-0.0592	0.0182	-0.0073	-0.0462	0.0165	0.9585
23.5414	37.9339	730.2493	69.1189	-171.7419	-36.5539	550.9253	0.10299	-10.0485	1.1447	-4.3245	-1.0168	-8.9328	-0.0592	0.0182	-0.0073	-0.0462	0.0165	0.9585
23.5543	41.9324	735.7229	69.8443	-173.2277	-35.9125	551.1151	-1.1201	-2.7734	1.5819	-1.0503	-0.84677	-2.1566	-0.0592	0.0182	-0.0073	-0.0462	0.0165	0.9585
23.5671	45.6059	735.7676	70.4425	-173.5018	-35.3513	547.6098	-2.9009	11.9192	1.8848	5.5326	-0.29454	11.4264	-0.0592	0.0182	-0.0073	-0.0462	0.0165	0.9585
23.58	48.6168	728.7997	70.6904	-172.223	-34.8208	539.4699	-5.2625	36.5348	1.8591	16.541	0.82328	34.0888	-0.0592	0.0182	-0.0073	-0.0462	0.0165	0.9585
23.5929	50.5875	713.4255	70.2894	-169.0899	-34.2289	525.8828	-8.0778	73.1671	1.2291	32.8993	2.6982	67.7151	-0.0592	0.0182	-0.0073	-0.0462	0.0165	0.9585
23.6057	51.1476	688.6346	68.8746	-163.8608	-33.4211	506.2756	-11.0143	122.5676	-0.37336	54.9301	5.5147	112.9395	-0.0592	0.0182	-0.0073	-0.0462	0.0165	0.9585
23.6186	50.0104	653.9201	66.0852	-156.3373	-32.2094	480.3424	-13.7525	183.0627	-3.343	81.863	9.4745	168.1387	-0.0592	0.0182	-0.0073	-0.0462	0.0165	0.9585
23.6314	47.0745	609.3372	61.5714	-146.3391	-30.3308	447.998	-16.5164	249.7661	-8.0216	111.4914	14.9625	228.7394	-0.0592	0.0182	-0.0073	-0.0462	0.0165	0.9585
23.6443	42.4697	556.0255	55.3007	-133.9115	-27.6898	409.786	-20.2469	315.7896	-14.3026	140.7437	22.2312	288.4782	-0.0592	0.0182	-0.0073	-0.0462	0.0165	0.9585
23.6571	36.651	496.9087	47.6612	-119.6976	-24.3866	367.5275	-25.0276	375.9451	-21.9004	167.32	31.0484	342.618	-0.0592	0.0182	-0.0073	-0.0462	0.0165	0.9585
23.67	30.2484	435.8762	39.514	-104.7578	-20.8138	323.8484	-30.2548	428.5531	-29.9234	190.49	40.3392	389.5814	-0.0592	0.0182	-0.0073	-0.0462	0.0165	0.9585
23.6829	23.8727	376.4076	31.7934	-90.1246	-17.4288	281.165	-35.0113	473.7878	-37.5276	210.3711	48.981	429.4259	-0.0592	0.0182	-0.0073	-0.0462	0.0165	0.9585
23.6957	17.9333	321.0196	25.2504	-76.5624	-14.645	241.281	-38.5465	512.3418	-43.8496	227.3297	55.8865	462.718	-0.0592	0.0182	-0.0073	-0.0462	0.0165	0.9585
23.7086	12.6801	271.2457	20.2062	-64.5195	-12.6275	205.2906	-40.3966	544.8919	-48.5925	241.6971	60.6133	490.0815	-0.0592	0.0182	-0.0073	-0.0462	0.0165	0.9585
23.7214	8.1738	227.8193	16.6634	-54.1613	-11.382	173.7404	-40.4128	572.0729	-51.7734	253.756	63.1245	512.1618	-0.0592	0.0182	-0.0073	-0.0462	0.0165	0.9585
23.7343	4.4027	190.8693	14.3519	-45.4515	-10.7334	146.7182	-38.8039	594.4073	-53.8636	263.7125	63.9416	529.5657	-0.0592	0.0182	-0.0073	-0.0462	0.0165	0.9585
23.7471	1.2337	160.0898	12.9572	-38.2301	-10.5109	124.0364	-35.9591	612.3976	-55.2094	271.7616	63.5527	542.8663	-0.0592	0.0182	-0.0073	-0.0462	0.0165	0.9585
23.76	-1.4648	134.7864	12.1523	-32.2683	-10.5316	105.2046	-32.3656	626.7093	-56.1381	278.1633	62.4736	552.7811	-0.0592	0.0182	-0.0073	-0.0462	0.0165	0.9585
23.7729	-3.8314	114.0249	11.6719	-27.32	-10.6625	89.5788	-28.4369	638.1299	-56.7254	283.2575	60.9553	560.0676	-0.0592	0.0182	-0.0073	-0.0462	0.0165	0.9585
23.7857	-5.9524	96.6963	11.2767	-23.1305	-10.7682	76.382	-24.5058	647.4766	-57.1097	287.4018	59.2617	565.4941	-0.0592	0.0182	-0.0073	-0.0462	0.0165	0.9585
23.7986	-7.8548	81.68	10.7954	-19.4551	-10.748	64.8226	-20.7645	655.5046	-57.3595	290.9347	57.5249	569.7283	-0.0592	0.0182	-0.0073	-0.0462	0.0165	0.9585
23.8114	-9.4986	68.058	10.1076	-16.1009	-10.5168	54.2592	-17.3438	662.8692	-57.656	294.1509	55.948	573.3369	-0.0592	0.0182	-0.0073	-0.0462	0.0165	0.9585
23.8243	-10.7642	55.2273	9.1771	-12.9446	-10.0337	44.2677	-14.3068	670.1084	-58.0913	297.296	54.6265	576.7658	-0.0592	0.0182	-0.0073	-0.0462	0.0165	0.9585
23.8371	-11.5132	42.9676	8.0051	-9.9474	-9.276	34.7297	-11.6604	677.6086	-58.7788	300.543	53.6689	580.3264	-0.0592	0.0182	-0.0073	-0.0462	0.0165	0.9585
23.85	-11.5627	31.3675	6.6491	-7.134	-8.2565	25.7224	-9.3982	685.5676	-59.7077	303.9831	53.0665	584.1663	-0.0592	0.0182	-0.0073	-0.0462	0.0165	0.9585
23.8629	-10.8315	20.7338	5.1795	-4.5718	-7.015	17.4928	-7.4807	694.004	-60.8655	307.6303	52.799	588.2745	-0.0592	0.0182	-0.0073	-0.0462	0.0165	0.9585
23.8757	-9.411	11.5069	3.7031	-2.3531	-5.6509	10.363	-5.8537	702.8346	-62.1637	311.4487	52.769	592.5707	-0.0592	0.0182	-0.0073	-0.0462	0.0165	0.9585
23.8886	-7.7068	4.1299	2.354	-0.57075	-4.3401	4.6645	-4.4567	711.8484	-63.5001	315.3493	52.8685	596.8609	-0.0592	0.0182	-0.0073	-0.0462	0.0165	0.9585
23.9014	-6.0824	-1.243	1.2083	0.73635	-3.1998	0.5165	-3.2346	720.7767	-64.7292	319.2215	52.9541	600.909	-0.0592	0.0182	-0.0073	-0.0462	0.0165	0.9585
23.9143	-4.7133	-4.7581	0.28888	1.59	-2.2661	-2.2099	-2.1155	729.4033	-65.7549	322.9746	52.9182	604.5318	-0.0592	0.0182	-0.0073	-0.0462	0.0165	0.9585
23.9271	-3.6555	-6.7055	-0.41098	2.0455	-1.5414	-3.7519	-1.0225	737.5558	-66.4993	326.5344	52.6563	607.5862	-0.0592	0.0182	-0.0073	-0.0462	0.0165	0.9585
23.94	-2.8771	-7.4642	-0.91771	2.1858	-0.99627	-4.4275	0.10844	745.0099	-66.965	329.8004	52.1382	609.9041	-0.0592	0.0182	-0.0073	-0.0462	0.0165	0.9585
23.9529	-2.3034	-7.3739	-1.2567	2.088	-0.59445	-4.4795	1.3312	751.4957	-67.1487	332.6516	51.3355	611.281	-0.0592	0.0182	-0.0073	-0.0462	0.0165	0.9585
23.9657	-1.8285	-6.7378	-1.4608	1.8255	-0.28235	-4.132	2.6865	756.7769	-67.0708	334.9801	50.2518	611.5465	-0.0592	0.0182	-0.0073	-0.0462	0.0165	0.9585
23.9786	-1.3819	-5.7976	-1.5646	1.4637	-0.02105	-3.5547	4.2127	760.6954	-66.744	336.7137	48.8817	610.5836	-0.0592	0.0182	-0.0073	-0.0462	0.0165	0.9585
23.9914	-0.91983	-4.7366	-1.5993	1.0575	0.22031	-2.8941	5.9116	763.1631	-66.2347	337.8094	47.2816	608.3402	-0.0592	0.0182	-0.0073	-0.0462	0.0165	0.9585
24.0043	-0.41062	-3.6925	-1.5758	0.65113	0.45116	-2.2623	7.7595	764.1569	-65.6013	338.2536	45.5206	604.8406	-0.0592	0.0182	-0.0073	-0.0462	0.0165	0.9585
24.0171	0.14352	-2.775	-1.5088	0.27748	0.67897	-1.7514	9.7225	763.7114	-64.9187	338.0643	43.6876	600.1506	-0.0592	0.0182	-0.0073	-0.0462	0.0165	0.9585
24.03	0.74553	-2.0583	-1.389	-0.042958	0.89009	-1.4403	11.7684	761.9285	-64.2275	337.2885	41.8381	594.3721	-0.0592	0.0182	-0.0073	-0.0462	0.0165	0.9585
24.0429	1.3735	-1.6002	-1.2282	-0.29421	1.0879	-1.3799	13.8933	758.9416	-63.5529	335.9865	40.0052	587.6277	-0.0592	0.0182	-0.0073	-0.0462	0.0165	0.9585
24.0557	2.0234	-1.4833	-1.0207	-0.45094	1.2668	-1.6578	16.0935	754.87	-62.8834	334.2117	38.1823	580.0354	-0.0592	0.0182	-0.0073	-0.0462	0.0165	0.9585
24.0686	2.6761	-1.7614	-0.78459	-0.49348	1.4424	-2.3233	18.3876	749.809	-62.2138	332.0065	36.3595	571.6951	-0.0592	0.0182	-0.0073	-0.0462	0.0165	0.9585
24.0814	3.3535	-2.4741	-0.52616	-0.40414	1.6279	-3.4147	20.7902	743.8716	-61.5208	329.4187	34.515	562.7374	-0.0592	0.0182	-0.0073	-0.0462	0.0165	0.9585
24.0943	4.0878	-3.592	-0.28504	-0.18745	1.8634	-4.8912	23.2732	737.2158	-60.7841	326.5117	32.6448	553.3442	-0.0592	0.0182	-0.0073	-0.0462	0.0165	0.9585
24.1071	4.9345	-4.9468	-0.083456	0.11116	2.1747	-6.5854	25.7966	730.0131	-59.9858	323.356	30.7483	543.703	-0.0592	0.0182	-0.0073	-0.0462	0.0165	0.9585
24.12	5.9831	-6.185	0.01803	0.38664	2.6333	-8.1555	28.306	722.4326	-59.1322	320.0188	28.8452	534.0085	-0.0592	0.0182	-0.0073	-0.0462	0.0165	0.9585
24.1329	7.3188	-6.6518	-0.021127	0.44025	3.293	-8.9679	30.7551	714.5974	-58.2366	316.5473	26.9604	524.4036	-0.0592	0.0182	-0.0073	-0.0462	0.0165	0.9585
24.1457	9.0512	-5.3081	-0.26201	-0.050687	4.232	-8.0629	33.0799	706.5748	-57.3381	312.9623	25.1445	514.9862	-0.0592	0.0182	-0.0073	-0.0462	0.0165	0.9585
24.1586	11.2478	-0.71086	-0.73559	-1.5371	5.4917	-4.107	35.2436	698.3477	-56.4789	309.2468	23.4354	505.7634	-0.0592	0.0182	-0.0073	-0.0462	0.0165	0.9585
24.1714	13.9377	8.9626	-1.4657	-4.5921	7.097	4.5628	37.2077	689.7999	-55.7032	305.3393	21.8835	496.6688	-0.0592	0.0182	-0.0073	-0.0462	0.0165	0.9585
24.1843	17.0023	25.7359	-2.4008	-9.8502	8.9592	19.8126	38.8844	680.6395	-55.0206	301.1037	20.5344	487.5197	-0.0592	0.0182	-0.0073	-0.0462	0.0165	0.9585
24.1971	20.1338	51.4131	-3.4394	-17.8747	10.8777	43.3202	40.1308	670.3137	-54.4018	296.2911	19.4325	477.9752	-0.0592	0.0182	-0.0073	-0.0462	0.0165	0.9585
24.21	22.7092	86.9079	-4.3405	-28.9379	12.4272	75.9806	40.7415	657.9783	-53.7452	290.5241	18.6006	467.5262	-0.0592	0.0182	-0.0073	-0.0462	0.0165	0.9585
24.2229	23.7101	131.2764	-4.7383	-42.7114	12.9469	117.0268	40.482	642.545	-52.8949	283.3234	18.038	455.473	-0.0592	0.0182	-0.0073	-0.0462	0.0165	0.9585
24.2357	22.004	180.9275	-4.0944	-58.0139	11.5968	163.3096	39.144	622.9581	-51.6907	274.2216	17.7373	441.1305	-0.0592	0.0182	-0.0073	-0.0462	0.0165	0.9585
24.2486	17.474	230.1111	-1.723	-72.9742	7.7177	209.637	36.7024	598.5706	-50.0183	262.9382	17.6539	424.0397	-0.0592	0.0182	-0.0073	-0.0462	0.0165	0.9585
24.2614	10.9207	273.5271	2.6015	-85.9286	1.3623	250.9981	33.4014	569.5174	-47.8161	249.5553	17.645	404.2082	-0.0592	0.0182	-0.0073	-0.0462	0.0165	0.9585
24.2743	3.3018	309.6126	8.0166	-96.4788	-6.321	285.6354	29.7107	536.8566	-45.1902	234.5636	17.5796	382.2087	-0.0592	0.0182	-0.0073	-0.0462	0.0165	0.9585
24.2871	-4.6001	339.9701	13.83	-105.2402	-14.3715	314.7679	26.1065	502.1383	-42.3474	218.6791	17.3858	358.896	-0.0592	0.0182	-0.0073	-0.0462	0.0165	0.9585
24.3	-12.152	367.4518	19.2226	-113.206	-21.7779	340.8145	22.9477	466.7708	-39.4343	202.5653	16.9926	335.0429	-0.0592	0.0182	-0.0073	-0.0462	0.0165	0.9585
